<?xml version="1.0" encoding="UTF-8"?>
<svg id="Camada_1" data-name="Camada 1" xmlns="http://www.w3.org/2000/svg" viewBox="0 0 95.45 141.73">
  <defs>
    <style>
      .cls-1 {
        fill: #8fd8a5;
      }
    </style>
  </defs>
  <path class="cls-1" d="m10.08,54.74c.03.4.08.8.15,1.24,1.41,8.1,8.4,13.97,16.61,13.97,2.95,0,5.84-.77,8.36-2.22.03-.01.05-.03.08-.05,1.2-.68,2.32-1.52,3.34-2.5l.8-.8-2.75-2.84-.81.8c-.86.84-1.81,1.53-2.82,2.09-1.87,1.03-4.01,1.57-6.19,1.57-6.29,0-11.65-4.49-12.72-10.71-.06-.34-.12-.68-.14-1.03-.04-.39-.06-.79-.06-1.19,0-.72.06-1.47.21-2.22l.18-1.12-3.87-.7-.21,1.13c-.01.06-.03.14-.04.21-3.82-2.32-6.24-6.59-6.24-11.08,0-5.17,3.29-10.01,8.07-11.96.13.81.32,1.63.58,2.44l.36,1.08,3.74-1.24-.35-1.08c-.4-1.23-.61-2.53-.61-3.91,0-.66.04-1.28.14-1.9.8-5.52,5.04-9.87,10.55-10.83,1.68-.3,3.43-.25,5.12.15-.13.4-.23.77-.31,1.14l-.24,1.11,3.86.86.24-1.11c.3-1.34.8-2.61,1.5-3.75,2.33-3.92,6.59-6.35,11.12-6.35,5.06,0,9.67,2.98,11.78,7.6.37.83.66,1.66.84,2.5l.24,1.11,3.87-.85-.26-1.12c-.09-.39-.18-.76-.3-1.14,1.69-.4,3.46-.45,5.12-.14,6.19,1.07,10.69,6.41,10.69,12.72,0,1.34-.21,2.66-.62,3.91l-.36,1.08,3.31,1.08.44.13.36-1.07c.18-.57.34-1.15.46-1.75,4.85,1.92,8.19,6.77,8.19,12.01,0,4.53-2.33,8.68-6.14,11.01-.04-.31-.09-.61-.14-.89l-.21-1.12-3.88.72.21,1.12c.1.58.17,1.11.18,1.7v.5c.01.76-.05,1.51-.18,2.23-1.07,6.2-6.44,10.69-12.73,10.69-2.17,0-4.31-.54-6.18-1.59-1.04-.55-1.99-1.25-2.82-2.08l-.81-.8-2.76,2.84.81.8c1.02.98,2.14,1.83,3.33,2.5.03.03.05.04.08.05.52.31,1.03.57,1.56.8l.09.06h.09c2.09.9,4.31,1.35,6.62,1.35,8.23,0,15.21-5.87,16.61-13.94.03-.17.05-.34.08-.5,6.09-2.64,10.15-8.82,10.15-15.48,0-7.31-4.84-13.87-11.81-16.07-.31-7.91-6.11-14.57-13.93-15.93-2.41-.44-4.97-.31-7.42.37C59.28,3.29,53.61,0,47.72,0s-11.56,3.29-14.56,8.4c-2.44-.68-4.99-.81-7.42-.37-7.43,1.3-13.22,7.65-13.88,15.18C4.87,25.38,0,31.96,0,39.3,0,45.9,4.03,52.07,10.08,54.74Z"/>
  <path class="cls-1" d="m49.7,64.1c0-1.17.22-2.46.63-3.71.35-1.07.86-2.14,1.52-3.18,2.4-3.71,6.36-6.03,11.17-6.55.69-.07,1.41-.12,2.17-.12h1.14v-3.96h-1.14c-1.33,0-2.64.12-3.86.32-4.33.73-8.08,2.67-10.86,5.64-.26.26-.53.57-.78.88v-13.77h-3.94v13.72c-.32-.38-.66-.76-1.04-1.16-1.92-1.96-5.32-4.47-10.59-5.34-.19-.03-.38-.06-.53-.06-.48-.07-1-.15-1.51-.16-.6-.06-1.2-.09-1.85-.09h-1.13v2.84s.04,1.11.04,1.11h1.11c.38,0,.76,0,1.14.03.34.01.66.04,1.04.07.23.03.5.07.79.12,4.35.65,7.14,2.68,8.69,4.28.5.51.95,1.06,1.35,1.61.75,1.04,1.32,2.16,1.73,3.36.48,1.33.73,2.71.73,4.09v36.92H0v4.55h26.58l-6.52,6.52H2.6v4.54h12.92l-7.61,7.61,3.21,3.23,21.9-21.9h9.22l-26.18,26.17,3.23,3.23,26.17-26.17v9.24l-19.07,19.06,3.23,3.23,15.85-15.86v17.29h4.54v-17.29l15.86,15.86,3.23-3.23-19.09-19.06v-9.24l26.18,26.17,3.21-3.23-26.17-26.17h9.22l21.89,21.89,3.23-3.21-7.61-7.61h12.9v-4.54h-17.45l-6.52-6.52h26.57v-4.55h-45.74v-36.92Z"/>
</svg>